<mxfile host="app.diagrams.net" modified="2022-04-10T17:36:05.355Z" agent="5.0 (Macintosh; Intel Mac OS X 10_15_7) AppleWebKit/537.36 (KHTML, like Gecko) Chrome/100.0.4896.75 Safari/537.36" etag="yvZWOFO23GU2_aEFZm5x" version="17.4.2" type="github">
  <diagram id="cuhBf4EbJXYHAvO4QVLx" name="Page-1">
    <mxGraphModel dx="1974" dy="953" grid="1" gridSize="10" guides="1" tooltips="1" connect="1" arrows="1" fold="1" page="1" pageScale="1" pageWidth="827" pageHeight="1169" math="0" shadow="0">
      <root>
        <mxCell id="0" />
        <mxCell id="1" parent="0" />
        <mxCell id="wDNAvFjv_C5XiCqs_QT7-9" style="edgeStyle=orthogonalEdgeStyle;rounded=0;orthogonalLoop=1;jettySize=auto;html=1;exitX=1;exitY=0.5;exitDx=0;exitDy=0;" edge="1" parent="1" source="wDNAvFjv_C5XiCqs_QT7-2" target="wDNAvFjv_C5XiCqs_QT7-8">
          <mxGeometry relative="1" as="geometry" />
        </mxCell>
        <mxCell id="wDNAvFjv_C5XiCqs_QT7-11" style="edgeStyle=orthogonalEdgeStyle;rounded=0;orthogonalLoop=1;jettySize=auto;html=1;exitX=1;exitY=0.75;exitDx=0;exitDy=0;entryX=0;entryY=0.5;entryDx=0;entryDy=0;" edge="1" parent="1" source="wDNAvFjv_C5XiCqs_QT7-2" target="wDNAvFjv_C5XiCqs_QT7-10">
          <mxGeometry relative="1" as="geometry" />
        </mxCell>
        <mxCell id="wDNAvFjv_C5XiCqs_QT7-12" style="edgeStyle=orthogonalEdgeStyle;rounded=0;orthogonalLoop=1;jettySize=auto;html=1;exitX=1;exitY=0.25;exitDx=0;exitDy=0;entryX=0;entryY=0.5;entryDx=0;entryDy=0;" edge="1" parent="1" source="wDNAvFjv_C5XiCqs_QT7-2" target="wDNAvFjv_C5XiCqs_QT7-6">
          <mxGeometry relative="1" as="geometry" />
        </mxCell>
        <mxCell id="wDNAvFjv_C5XiCqs_QT7-21" style="edgeStyle=orthogonalEdgeStyle;rounded=0;orthogonalLoop=1;jettySize=auto;html=1;exitX=0;exitY=0.25;exitDx=0;exitDy=0;entryX=1;entryY=0.5;entryDx=0;entryDy=0;" edge="1" parent="1" source="wDNAvFjv_C5XiCqs_QT7-2" target="wDNAvFjv_C5XiCqs_QT7-13">
          <mxGeometry relative="1" as="geometry" />
        </mxCell>
        <mxCell id="wDNAvFjv_C5XiCqs_QT7-23" style="edgeStyle=orthogonalEdgeStyle;rounded=0;orthogonalLoop=1;jettySize=auto;html=1;exitX=0;exitY=0.5;exitDx=0;exitDy=0;entryX=1;entryY=0.5;entryDx=0;entryDy=0;" edge="1" parent="1" source="wDNAvFjv_C5XiCqs_QT7-2" target="wDNAvFjv_C5XiCqs_QT7-22">
          <mxGeometry relative="1" as="geometry" />
        </mxCell>
        <mxCell id="wDNAvFjv_C5XiCqs_QT7-2" value="基础知识" style="whiteSpace=wrap;html=1;" vertex="1" parent="1">
          <mxGeometry x="331" y="900" width="120" height="60" as="geometry" />
        </mxCell>
        <mxCell id="wDNAvFjv_C5XiCqs_QT7-16" style="edgeStyle=orthogonalEdgeStyle;rounded=0;orthogonalLoop=1;jettySize=auto;html=1;exitX=1;exitY=0.25;exitDx=0;exitDy=0;entryX=0;entryY=0.5;entryDx=0;entryDy=0;" edge="1" parent="1" source="wDNAvFjv_C5XiCqs_QT7-3" target="wDNAvFjv_C5XiCqs_QT7-15">
          <mxGeometry relative="1" as="geometry" />
        </mxCell>
        <mxCell id="wDNAvFjv_C5XiCqs_QT7-18" style="edgeStyle=orthogonalEdgeStyle;rounded=0;orthogonalLoop=1;jettySize=auto;html=1;exitX=1;exitY=0.5;exitDx=0;exitDy=0;entryX=0;entryY=0.5;entryDx=0;entryDy=0;" edge="1" parent="1" source="wDNAvFjv_C5XiCqs_QT7-3" target="wDNAvFjv_C5XiCqs_QT7-17">
          <mxGeometry relative="1" as="geometry" />
        </mxCell>
        <mxCell id="wDNAvFjv_C5XiCqs_QT7-20" style="edgeStyle=orthogonalEdgeStyle;rounded=0;orthogonalLoop=1;jettySize=auto;html=1;exitX=1;exitY=0.75;exitDx=0;exitDy=0;entryX=0;entryY=0.5;entryDx=0;entryDy=0;" edge="1" parent="1" source="wDNAvFjv_C5XiCqs_QT7-3" target="wDNAvFjv_C5XiCqs_QT7-19">
          <mxGeometry relative="1" as="geometry" />
        </mxCell>
        <mxCell id="wDNAvFjv_C5XiCqs_QT7-34" value="" style="edgeStyle=orthogonalEdgeStyle;rounded=0;orthogonalLoop=1;jettySize=auto;html=1;" edge="1" parent="1" source="wDNAvFjv_C5XiCqs_QT7-3" target="wDNAvFjv_C5XiCqs_QT7-33">
          <mxGeometry relative="1" as="geometry" />
        </mxCell>
        <mxCell id="wDNAvFjv_C5XiCqs_QT7-3" value="应用知识" style="whiteSpace=wrap;html=1;" vertex="1" parent="1">
          <mxGeometry x="340" y="480" width="120" height="60" as="geometry" />
        </mxCell>
        <mxCell id="wDNAvFjv_C5XiCqs_QT7-6" value="Git" style="rounded=1;whiteSpace=wrap;html=1;" vertex="1" parent="1">
          <mxGeometry x="560" y="810" width="120" height="60" as="geometry" />
        </mxCell>
        <mxCell id="wDNAvFjv_C5XiCqs_QT7-8" value="JS" style="rounded=1;whiteSpace=wrap;html=1;" vertex="1" parent="1">
          <mxGeometry x="560" y="900" width="120" height="60" as="geometry" />
        </mxCell>
        <mxCell id="wDNAvFjv_C5XiCqs_QT7-10" value="数据结构与算法" style="rounded=1;whiteSpace=wrap;html=1;" vertex="1" parent="1">
          <mxGeometry x="560" y="990" width="120" height="60" as="geometry" />
        </mxCell>
        <mxCell id="wDNAvFjv_C5XiCqs_QT7-29" style="edgeStyle=orthogonalEdgeStyle;rounded=0;orthogonalLoop=1;jettySize=auto;html=1;exitX=0;exitY=0;exitDx=0;exitDy=0;entryX=1;entryY=0.5;entryDx=0;entryDy=0;" edge="1" parent="1" source="wDNAvFjv_C5XiCqs_QT7-13" target="wDNAvFjv_C5XiCqs_QT7-25">
          <mxGeometry relative="1" as="geometry" />
        </mxCell>
        <mxCell id="wDNAvFjv_C5XiCqs_QT7-30" style="edgeStyle=orthogonalEdgeStyle;rounded=0;orthogonalLoop=1;jettySize=auto;html=1;exitX=0;exitY=0.25;exitDx=0;exitDy=0;entryX=1;entryY=0.5;entryDx=0;entryDy=0;" edge="1" parent="1" source="wDNAvFjv_C5XiCqs_QT7-13" target="wDNAvFjv_C5XiCqs_QT7-24">
          <mxGeometry relative="1" as="geometry" />
        </mxCell>
        <mxCell id="wDNAvFjv_C5XiCqs_QT7-31" style="edgeStyle=orthogonalEdgeStyle;rounded=0;orthogonalLoop=1;jettySize=auto;html=1;exitX=0;exitY=0.5;exitDx=0;exitDy=0;entryX=1;entryY=0.5;entryDx=0;entryDy=0;" edge="1" parent="1" source="wDNAvFjv_C5XiCqs_QT7-13" target="wDNAvFjv_C5XiCqs_QT7-26">
          <mxGeometry relative="1" as="geometry" />
        </mxCell>
        <mxCell id="wDNAvFjv_C5XiCqs_QT7-32" style="edgeStyle=orthogonalEdgeStyle;rounded=0;orthogonalLoop=1;jettySize=auto;html=1;exitX=0;exitY=0.75;exitDx=0;exitDy=0;entryX=1;entryY=0.5;entryDx=0;entryDy=0;" edge="1" parent="1" source="wDNAvFjv_C5XiCqs_QT7-13" target="wDNAvFjv_C5XiCqs_QT7-27">
          <mxGeometry relative="1" as="geometry">
            <Array as="points">
              <mxPoint x="70" y="865" />
              <mxPoint x="70" y="980" />
            </Array>
          </mxGeometry>
        </mxCell>
        <mxCell id="wDNAvFjv_C5XiCqs_QT7-13" value="编程范式" style="rounded=1;whiteSpace=wrap;html=1;" vertex="1" parent="1">
          <mxGeometry x="140" y="820" width="120" height="60" as="geometry" />
        </mxCell>
        <mxCell id="wDNAvFjv_C5XiCqs_QT7-15" value="框架" style="rounded=1;whiteSpace=wrap;html=1;" vertex="1" parent="1">
          <mxGeometry x="540" y="370" width="120" height="60" as="geometry" />
        </mxCell>
        <mxCell id="wDNAvFjv_C5XiCqs_QT7-17" value="状态管理" style="rounded=1;whiteSpace=wrap;html=1;" vertex="1" parent="1">
          <mxGeometry x="540" y="480" width="120" height="60" as="geometry" />
        </mxCell>
        <mxCell id="wDNAvFjv_C5XiCqs_QT7-19" value="工程化" style="rounded=1;whiteSpace=wrap;html=1;" vertex="1" parent="1">
          <mxGeometry x="540" y="580" width="120" height="60" as="geometry" />
        </mxCell>
        <mxCell id="wDNAvFjv_C5XiCqs_QT7-22" value="计算机网络" style="rounded=1;whiteSpace=wrap;html=1;" vertex="1" parent="1">
          <mxGeometry x="140" y="900" width="120" height="60" as="geometry" />
        </mxCell>
        <mxCell id="wDNAvFjv_C5XiCqs_QT7-24" value="OOP" style="rounded=1;whiteSpace=wrap;html=1;" vertex="1" parent="1">
          <mxGeometry x="-160" y="790" width="120" height="60" as="geometry" />
        </mxCell>
        <mxCell id="wDNAvFjv_C5XiCqs_QT7-25" value="设计模式" style="rounded=1;whiteSpace=wrap;html=1;" vertex="1" parent="1">
          <mxGeometry x="-160" y="700" width="120" height="60" as="geometry" />
        </mxCell>
        <mxCell id="wDNAvFjv_C5XiCqs_QT7-26" value="函数式编程" style="rounded=1;whiteSpace=wrap;html=1;" vertex="1" parent="1">
          <mxGeometry x="-160" y="870" width="120" height="60" as="geometry" />
        </mxCell>
        <mxCell id="wDNAvFjv_C5XiCqs_QT7-27" value="AOP" style="rounded=1;whiteSpace=wrap;html=1;" vertex="1" parent="1">
          <mxGeometry x="-160" y="950" width="120" height="60" as="geometry" />
        </mxCell>
        <mxCell id="wDNAvFjv_C5XiCqs_QT7-36" value="" style="edgeStyle=orthogonalEdgeStyle;rounded=0;orthogonalLoop=1;jettySize=auto;html=1;" edge="1" parent="1" source="wDNAvFjv_C5XiCqs_QT7-33" target="wDNAvFjv_C5XiCqs_QT7-35">
          <mxGeometry relative="1" as="geometry">
            <Array as="points">
              <mxPoint x="200" y="400" />
            </Array>
          </mxGeometry>
        </mxCell>
        <mxCell id="wDNAvFjv_C5XiCqs_QT7-33" value="应用优化" style="rounded=1;whiteSpace=wrap;html=1;" vertex="1" parent="1">
          <mxGeometry x="140" y="480" width="120" height="60" as="geometry" />
        </mxCell>
        <mxCell id="wDNAvFjv_C5XiCqs_QT7-35" value="时间分片" style="rounded=1;whiteSpace=wrap;html=1;" vertex="1" parent="1">
          <mxGeometry x="-50" y="380" width="120" height="60" as="geometry" />
        </mxCell>
      </root>
    </mxGraphModel>
  </diagram>
</mxfile>
